<?xml version="1.0" encoding="UTF-8"?>
<svg viewBox="0 0 5801 1023" version="1.1" xmlns="http://www.w3.org/2000/svg" xmlns:xlink="http://www.w3.org/1999/xlink">
    <title>Tecsmith</title>
	<style>
		@media (prefers-color-scheme: dark) {
			#r, #g, #b { fill: none; stroke: #EEE; }
			#t, #s { stroke-width: 40; stroke: #EEE; fill: none; }
		}
	</style>
    <defs>
        <linearGradient x1="0%" y1="0%" x2="100%" y2="50%" id="x">
            <stop stop-color="#FB0000" stop-opacity="0.8" offset="0%"></stop>
            <stop stop-color="#8C0000" stop-opacity="0.8" offset="100%"></stop>
        </linearGradient>
        <linearGradient x1="0%" y1="0%" x2="100%" y2="50%" id="y">
            <stop stop-color="#00FB00" stop-opacity="0.8" offset="0%"></stop>
            <stop stop-color="#008C00" stop-opacity="0.8" offset="100%"></stop>
        </linearGradient>
        <linearGradient x1="5.55111512e-15%" y1="0%" x2="100%" y2="50%" id="z">
            <stop stop-color="#0000FB" stop-opacity="0.8" offset="0%"></stop>
            <stop stop-color="#00008C" stop-opacity="0.8" offset="100%"></stop>
        </linearGradient>
    </defs>
    <g id="l" transform="translate(21, 21)" fill-rule="nonzero">
    	<g id="c" stroke="#000" stroke-width="40" stroke-linejoin="round">
			<path id="r" fill="url(#x)" d="M493 423.621l447.283-219.75L493 .197 45.717 203.87z"/>
			<path id="g" fill="url(#y)" d="M456.034 488.44L.866 259.678l47.923 464.179 410.829 256.41z"/>
			<path id="b" fill="url(#z)" d="M529.966 488.44l455.168-228.762-47.923 464.179-410.829 256.41z"/>
		</g>
		<g id="n" stroke-width="0" stroke-linejoin="round">
	        <path id="t" fill="#f03b4d" d="M1435.398 934.592c36.032 0 66.434-3.003 91.206-9.008s47.292-13.137 67.56-21.394h0l-23.646-130.616c-15.764 6.005-33.217 10.697-52.359 14.075s-37.721 5.067-55.737 5.067c-37.533 0-62.493-10.509-74.879-31.528s-18.579-49.169-18.579-84.45h0v-208.31h201.554V328.804h-201.554v-174.53l-167.774 27.024V678.99c0 38.284 3.566 73.19 10.697 104.718s19.705 58.364 37.721 80.509 42.037 39.41 72.064 51.796 67.935 18.579 113.726 18.579zm533.724 2.252c21.019 0 42.037-1.126 63.056-3.378s40.724-5.067 59.115-8.445 35.094-7.319 50.107-11.823 27.024-9.008 36.032-13.512h0l-22.52-136.246c-18.767 8.257-42.976 15.201-72.627 20.831s-59.866 8.445-90.643 8.445c-48.043 0-86.327-10.134-114.852-30.402s-44.665-47.667-48.418-82.198h0 380.588l2.252-30.965c.751-11.635 1.126-22.332 1.126-32.091 0-99.839-24.397-175.468-73.19-226.889s-115.227-77.131-199.302-77.131c-36.032 0-71.126 6.756-105.281 20.268s-64.37 33.405-90.643 59.678-47.48 59.115-63.619 98.525-24.209 85.388-24.209 137.935c0 43.539 6.193 84.075 18.579 121.608s31.528 70 57.426 97.399 58.552 48.981 97.962 64.745 85.764 23.646 139.061 23.646zm81.072-371.58h-221.822c2.252-14.263 5.818-28.338 10.697-42.225s11.823-26.086 20.831-36.595 20.268-18.954 33.78-25.335 29.651-9.571 48.418-9.571c19.517 0 35.844 3.378 48.981 10.134s24.021 15.389 32.654 25.898 15.013 22.52 19.142 36.032 6.568 27.399 7.319 41.662h0zm572.008 371.58c35.281 0 67.56-3.003 96.836-9.008s53.673-13.137 73.19-21.394h0l-23.646-137.372c-19.517 8.257-40.911 14.263-64.182 18.016s-45.04 5.63-65.308 5.63c-57.051 0-97.024-14.638-119.919-43.914s-34.343-70.563-34.343-123.86c0-50.295 12.198-90.831 36.595-121.608s61.367-46.166 110.911-46.166c23.271 0 44.289 2.252 63.056 6.756s36.032 9.759 51.796 15.764h0l34.906-133.994c-24.772-10.509-50.295-18.579-76.568-24.209s-55.174-8.445-86.702-8.445c-48.043 0-90.831 8.257-128.364 24.772s-69.437 38.847-95.71 66.997-46.354 61.179-60.241 99.088-20.831 78.257-20.831 121.045c0 44.289 5.818 85.388 17.453 123.297s30.027 70.75 55.174 98.525 57.238 49.732 96.273 65.871 85.576 24.209 139.624 24.209z"/>
	        <path id="s" fill="#565656" d="M3073.728 936.844c80.321 0 142.439-15.013 186.353-45.04s65.871-74.316 65.871-132.868c0-24.772-2.815-46.541-8.445-65.308s-15.389-35.844-29.276-51.233-32.842-29.651-56.863-42.788-54.423-26.461-91.206-39.973c-18.016-6.756-32.842-12.949-44.477-18.579s-20.831-10.885-27.587-15.764-11.26-9.946-13.512-15.201-3.378-11.26-3.378-18.016c0-29.276 26.273-43.914 78.82-43.914 28.525 0 54.236 2.627 77.131 7.882s44.102 11.26 63.619 18.016h0l29.276-130.616c-19.517-7.507-45.791-14.45-78.82-20.831s-67.56-9.571-103.592-9.571c-72.064 0-128.739 16.139-170.026 48.418s-61.93 76.193-61.93 131.742c0 28.525 4.129 52.922 12.386 73.19s19.893 37.721 34.906 52.359 33.217 27.212 54.611 37.721 45.228 20.643 71.501 30.402c33.78 12.761 58.927 24.209 75.442 34.343s24.772 21.957 24.772 35.469c0 17.265-6.381 28.901-19.142 34.906s-34.531 9.008-65.308 9.008c-29.276 0-58.927-3.19-88.954-9.571a550.35 550.35 0 0 1-87.828-26.461h0l-28.15 136.246c13.512 6.005 37.721 13.512 72.627 22.52s78.632 13.512 131.179 13.512zm544.984-15.764V463.924c10.509-1.501 21.394-2.815 32.654-3.941s22.145-1.689 32.654-1.689c33.78 0 57.614 11.26 71.501 33.78s20.831 60.804 20.831 114.852h0V921.08h167.774V597.918c0-21.769-.751-42.225-2.252-61.367s-4.879-37.346-10.134-54.611c10.509-6.756 23.834-12.386 39.973-16.89s28.713-6.756 37.721-6.756c33.78 0 57.614 11.26 71.501 33.78s20.831 60.804 20.831 114.852h0V921.08h167.774V586.658c0-40.536-3.378-77.319-10.134-110.348s-19.142-61.555-37.158-85.576-42.225-42.6-72.627-55.737-69.249-19.705-116.541-19.705c-26.273 0-54.986 4.879-86.139 14.638s-58.74 23.271-82.761 40.536c-17.265-15.013-39.222-27.962-65.871-38.847s-61.367-16.327-104.155-16.327c-21.769 0-43.914.938-66.434 2.815s-44.477 4.504-65.871 7.882-41.662 7.131-60.804 11.26-35.844 8.07-50.107 11.823h0V921.08h167.774zm886.162-664.34c27.024 0 50.482-8.82 70.375-26.461s29.839-41.85 29.839-72.627-9.946-54.986-29.839-72.627-43.351-26.461-70.375-26.461-50.482 8.82-70.375 26.461-29.839 41.85-29.839 72.627 9.946 54.986 29.839 72.627 43.351 26.461 70.375 26.461zm84.45 664.34V328.804H4421.55V921.08h167.774zm386.218 13.512c36.032 0 66.434-3.003 91.206-9.008s47.292-13.137 67.56-21.394h0l-23.646-130.616c-15.764 6.005-33.217 10.697-52.359 14.075s-37.721 5.067-55.737 5.067c-37.533 0-62.493-10.509-74.879-31.528s-18.579-49.169-18.579-84.45h0v-208.31h201.554V328.804h-201.554v-174.53l-167.774 27.024V678.99c0 38.284 3.566 73.19 10.697 104.718s19.705 58.364 37.721 80.509 42.037 39.41 72.064 51.796 67.935 18.579 113.726 18.579zm439.14-13.512v-450.4c10.509-3.003 22.332-5.818 35.469-8.445s27.212-3.941 42.225-3.941c37.533 0 63.244 11.26 77.131 33.78s20.831 60.804 20.831 114.852h0V921.08h167.774V586.658c0-40.536-3.941-77.319-11.823-110.348s-21.394-61.555-40.536-85.576-44.665-42.6-76.568-55.737-71.876-19.705-119.919-19.705c-16.515 0-33.592 1.689-51.233 5.067s-32.091 6.944-43.351 10.697h0V47.304l-167.774 27.024V921.08h167.774z"/>
		</g>
    </g>
</svg>
